<svg width="92" height="92" viewBox="0 0 92 92" fill="none" xmlns="http://www.w3.org/2000/svg">
<path fill-rule="evenodd" clip-rule="evenodd" d="M81.2964 66.5922C81.5658 66.862 81.7171 67.2278 81.7169 67.6091C81.7166 67.9905 81.5649 68.3561 81.2951 68.6255C81.0253 68.895 80.6595 69.0463 80.2782 69.046C79.8969 69.0458 79.5312 68.8941 79.2618 68.6243L75.6125 64.975V76.5255C75.6125 76.9068 75.4611 77.2724 75.1915 77.542C74.9219 77.8115 74.5562 77.963 74.175 77.963C73.7937 77.963 73.4281 77.8115 73.1585 77.542C72.889 77.2724 72.7375 76.9068 72.7375 76.5255V64.975L69.088 68.6237C68.8156 68.8781 68.4551 69.0166 68.0825 69.0103C67.7098 69.0039 67.3543 68.853 67.0907 68.5895C66.8272 68.326 66.6763 67.9705 66.6698 67.5978C66.6634 67.2252 66.8019 66.8647 67.0561 66.5922L73.1581 60.4886C73.4281 60.219 73.794 60.0677 74.1754 60.0677C74.5569 60.0677 74.9228 60.219 75.1927 60.4886L81.2964 66.5922ZM89.0141 70.8165C89.2507 68.8678 89.1011 66.8916 88.5739 65.0008C88.0467 63.11 87.1522 61.3415 85.9415 59.7964C84.7307 58.2513 83.2275 56.9598 81.5176 55.9957C79.8077 55.0316 77.9247 54.4137 75.976 54.1774C75.3685 54.1036 74.757 54.0662 74.145 54.0655C71.2668 54.0713 68.4516 54.908 66.0374 56.475C63.6232 58.042 61.7127 60.2727 60.5355 62.8991C59.3582 65.5255 58.9643 68.4359 59.4009 71.2807C59.8375 74.1256 61.0862 76.7839 62.9969 78.9363C64.9076 81.0888 67.3991 82.6438 70.1721 83.4147C72.9451 84.1855 75.8817 84.1394 78.6292 83.2819C81.3766 82.4243 83.8181 80.7918 85.6603 78.5805C87.5024 76.3691 88.667 73.6729 89.0141 70.8158V70.8165ZM11.3081 76.7282H58.1043C56.6535 73.706 56.0847 70.3357 56.4633 67.0048C56.842 63.6738 58.1527 60.5172 60.2448 57.8977C62.3369 55.2782 65.1256 53.3021 68.2904 52.1964C71.4553 51.0907 74.8678 50.9003 78.136 51.647V40.3181L68.6696 30.8498L49.0319 45.006L54.8863 49.1099C55.0449 49.2165 55.1808 49.3536 55.2858 49.5134C55.3908 49.6731 55.4629 49.8522 55.4978 50.0401C55.5328 50.228 55.5299 50.4211 55.4894 50.6079C55.4489 50.7947 55.3715 50.9715 55.2618 51.1281C55.1521 51.2846 55.0122 51.4177 54.8505 51.5195C54.6887 51.6214 54.5082 51.6899 54.3197 51.7212C54.1311 51.7525 53.9381 51.7458 53.7522 51.7016C53.5662 51.6574 53.3909 51.5765 53.2366 51.4638L23.7319 30.7817L2.875 48.4199V68.2933C2.87738 70.5291 3.7665 72.6727 5.34731 74.2538C6.92813 75.835 9.07155 76.7245 11.3074 76.7273L11.3081 76.7282ZM11.3081 8.04623H69.7029C71.9388 8.04856 74.0824 8.93777 75.6634 10.5187C77.2444 12.0997 78.1337 14.2433 78.136 16.4791V36.2516L69.8377 27.954C69.5963 27.7124 69.2767 27.5645 68.9363 27.5368C68.5958 27.5092 68.2566 27.6035 67.9794 27.8031L46.5391 43.2598L24.4752 27.7921C24.215 27.6101 23.9018 27.5193 23.5846 27.5339C23.2673 27.5484 22.9638 27.6675 22.7213 27.8726L2.875 44.6559V16.4791C2.87728 14.2433 3.7665 12.0996 5.34752 10.5186C6.92853 8.93755 9.0722 8.04852 11.3081 8.04623ZM88.2037 58.0245C86.3187 55.6124 83.8403 53.7303 81.0107 52.562V16.4791C81.0074 13.4811 79.815 10.6069 77.6951 8.48693C75.5752 6.367 72.7009 5.17456 69.7029 5.17123H11.3081C8.31002 5.17447 5.43567 6.36687 3.3157 8.48681C1.19573 10.6067 0.00328186 13.4811 0 16.4791V68.294C0.00337587 71.2922 1.19577 74.1666 3.31564 76.2868C5.43551 78.4069 8.30976 79.5997 11.3079 79.6035H59.8415C59.9407 79.7383 60.0433 79.8731 60.147 80.0053C63.0618 83.7259 67.3353 86.1361 72.0272 86.7059C76.7191 87.2756 81.4452 85.9581 85.1658 83.0433C88.8863 80.1285 91.2966 75.855 91.8663 71.1631C92.436 66.4712 91.1186 61.7451 88.2037 58.0245ZM45.3247 18.2611C46.628 18.2611 47.902 18.6475 48.9857 19.3715C50.0694 20.0956 50.914 21.1247 51.4128 22.3288C51.9115 23.5328 52.0421 24.8577 51.7878 26.136C51.5336 27.4142 50.9061 28.5884 49.9845 29.51C49.063 30.4315 47.8889 31.0592 46.6106 31.3135C45.3324 31.5677 44.0075 31.4373 42.8034 30.9386C41.5993 30.4399 40.5701 29.5953 39.846 28.5117C39.122 27.4281 38.7355 26.1541 38.7354 24.8508C38.7378 23.1039 39.4328 21.4293 40.6681 20.1941C41.9033 18.9589 43.5779 18.2639 45.3247 18.2615V18.2611ZM45.3247 34.3146C43.4529 34.3146 41.6231 33.7596 40.0667 32.7197C38.5103 31.6798 37.2972 30.2017 36.5809 28.4723C35.8645 26.743 35.6771 24.8401 36.0422 23.0042C36.4074 21.1683 37.3088 19.4819 38.6323 18.1583C39.9559 16.8347 41.6423 15.9333 43.4781 15.5682C45.314 15.203 47.2169 15.3904 48.9463 16.1067C50.6756 16.823 52.1537 18.036 53.1937 19.5924C54.2336 21.1488 54.7887 22.9786 54.7887 24.8504C54.7858 27.3596 53.7878 29.7651 52.0136 31.5393C50.2394 33.3136 47.8339 34.3116 45.3247 34.3146Z" fill="url(#paint0_linear_10_52)"/>
<defs>
<linearGradient id="paint0_linear_10_52" x1="45.9982" y1="5.17123" x2="45.9982" y2="86.8359" gradientUnits="userSpaceOnUse">
<stop stop-color="#9768FC"/>
<stop offset="1" stop-color="#347EED"/>
</linearGradient>
</defs>
</svg>
