<svg width="92" height="92" viewBox="0 0 92 92" fill="none" xmlns="http://www.w3.org/2000/svg">
<g clip-path="url(#clip0_10_55)">
<path fill-rule="evenodd" clip-rule="evenodd" d="M81.2969 69.4054C81.5665 69.675 81.7179 70.0406 81.7179 70.4218C81.7179 70.803 81.5665 71.1686 81.2969 71.4382L75.1933 77.5418C74.9235 77.8111 74.5579 77.9623 74.1768 77.9623C73.7957 77.9623 73.4301 77.8111 73.1603 77.5418L67.0563 71.4382C66.7868 71.1685 66.6353 70.8028 66.6354 70.4215C66.6355 70.0402 66.787 69.6746 67.0567 69.405C67.3263 69.1355 67.692 68.9841 68.0733 68.9841C68.4546 68.9842 68.8203 69.1357 69.0898 69.4054L72.7393 73.0548V61.5045C72.7393 61.1233 72.8907 60.7576 73.1603 60.4881C73.4299 60.2185 73.7955 60.067 74.1768 60.067C74.558 60.067 74.9237 60.2185 75.1933 60.4881C75.4628 60.7576 75.6143 61.1233 75.6143 61.5045V73.0548L79.2641 69.4054C79.534 69.1363 79.8995 68.9852 80.2806 68.9852C80.6617 68.9852 81.0272 69.1363 81.2971 69.4054H81.2969ZM89.0148 70.8159C89.4917 66.8808 88.3862 62.9174 85.9414 59.7971C83.4966 56.6769 79.9128 54.6553 75.9778 54.1769C75.3701 54.103 74.7586 54.0657 74.1464 54.0649C71.2681 54.0706 68.4527 54.9071 66.0383 56.4741C63.6239 58.041 61.7132 60.2716 60.5358 62.8981C59.3583 65.5245 58.9642 68.4351 59.4008 71.2801C59.8373 74.1251 61.086 76.7835 62.9967 78.9361C64.9075 81.0887 67.3991 82.6439 70.1722 83.4148C72.9453 84.1857 75.8821 84.1396 78.6296 83.282C81.3772 82.4244 83.8187 80.7918 85.661 78.5804C87.5032 76.3689 88.6678 73.6725 89.0148 70.8152V70.8159ZM11.3083 76.7277H58.1046C56.7229 73.8458 56.1414 70.6454 56.4208 67.4617C56.7003 64.2779 57.8305 61.2278 59.6931 58.6307C61.5558 56.0336 64.0824 53.985 67.0084 52.6994C69.9344 51.4137 73.1522 50.9383 76.325 51.3229C76.9344 51.3974 77.5397 51.5024 78.1385 51.6375V40.3172L68.6708 30.8498L49.0329 45.0069L54.8875 49.1108C55.0453 49.2178 55.1803 49.3551 55.2845 49.5147C55.3888 49.6744 55.4602 49.8532 55.4947 50.0407C55.5292 50.2282 55.526 50.4207 55.4854 50.607C55.4447 50.7933 55.3674 50.9696 55.258 51.1257C55.1485 51.2819 55.0091 51.4147 54.8479 51.5164C54.6866 51.6181 54.5067 51.6868 54.3187 51.7183C54.1306 51.7498 53.9382 51.7437 53.7526 51.7001C53.567 51.6566 53.3919 51.5765 53.2375 51.4647L23.7328 30.7826L2.89063 48.4062C2.88542 48.4105 2.87931 48.4148 2.8741 48.419V68.2924C2.87634 70.5287 3.76563 72.6727 5.34684 74.254C6.92805 75.8354 9.07201 76.7249 11.3083 76.7273V76.7277ZM11.3083 8.0439H69.7037C71.9397 8.04642 74.0835 8.9358 75.6647 10.5169C77.2458 12.0981 78.1353 14.2418 78.1378 16.4779V36.2525L69.8381 27.9531C69.5967 27.7117 69.2774 27.564 68.9371 27.5365C68.5969 27.509 68.2579 27.6035 67.981 27.8031L46.5403 43.2598L24.4747 27.7921C24.2146 27.61 23.9015 27.5191 23.5844 27.5335C23.2672 27.5479 22.9637 27.6668 22.7211 27.8717L2.875 44.655V16.4782C2.87757 14.2423 3.76687 12.0987 5.34784 10.5176C6.92881 8.9365 9.07235 8.04702 11.3083 8.04426V8.0439ZM88.2052 58.0245C86.322 55.6076 83.8437 53.7209 81.0126 52.5491V16.4782C81.0091 13.48 79.8165 10.6056 77.6964 8.4856C75.5763 6.36557 72.7019 5.17304 69.7037 5.16962H11.3083C8.31018 5.17323 5.43592 6.36584 3.31598 8.48585C1.19604 10.6059 0.00351889 13.4802 0 16.4782L0 68.2931C0.0028543 71.2917 1.19526 74.1666 3.31551 76.2869C5.43576 78.4072 8.31064 79.5997 11.3092 79.6027H59.8428C59.9423 79.7395 60.0445 79.8743 60.1493 80.0071C63.0749 83.6964 67.3416 86.078 72.0175 86.6317C76.6933 87.1854 81.3983 85.8661 85.1046 82.9621C88.8109 80.0581 91.2174 75.8054 91.7983 71.1328C92.3793 66.4603 91.0875 61.7477 88.2052 58.0245ZM45.3262 18.2611C46.6294 18.2611 47.9035 18.6476 48.9871 19.3716C50.0707 20.0957 50.9153 21.1248 51.4141 22.3289C51.9128 23.5329 52.0433 24.8579 51.7891 26.1361C51.5348 27.4143 50.9073 28.5885 49.9857 29.51C49.0642 30.4316 47.8901 31.0592 46.6118 31.3135C45.3336 31.5677 44.0087 31.4373 42.8046 30.9386C41.6005 30.4398 40.5714 29.5953 39.8473 28.5117C39.1232 27.4281 38.7367 26.1541 38.7367 24.8508C38.7387 23.1038 39.4336 21.4289 40.669 20.1936C41.9043 18.9583 43.5792 18.2635 45.3262 18.2615V18.2611ZM45.3262 34.3153C43.4542 34.3153 41.6242 33.7602 40.0677 32.7202C38.5112 31.6802 37.298 30.202 36.5816 28.4725C35.8652 26.743 35.6778 24.8399 36.043 23.0039C36.4082 21.1679 37.3097 19.4814 38.6334 18.1577C39.9571 16.834 41.6436 15.9326 43.4796 15.5674C45.3157 15.2022 47.2188 15.3897 48.9482 16.1061C50.6777 16.8225 52.1559 18.0357 53.1959 19.5923C54.2359 21.1488 54.7909 22.9788 54.7909 24.8508C54.788 27.3601 53.7898 29.7657 52.0155 31.5401C50.2411 33.3144 47.8355 34.3124 45.3262 34.3153Z" fill="url(#paint0_linear_10_55)"/>
</g>
<defs>
<linearGradient id="paint0_linear_10_55" x1="45.9673" y1="5.16962" x2="45.9673" y2="86.7554" gradientUnits="userSpaceOnUse">
<stop stop-color="#9768FC"/>
<stop offset="1" stop-color="#347EED"/>
</linearGradient>
<clipPath id="clip0_10_55">
<rect width="92" height="92" fill="white"/>
</clipPath>
</defs>
</svg>
