<svg width="92" height="92" viewBox="0 0 92 92" fill="none" xmlns="http://www.w3.org/2000/svg">
<g clip-path="url(#clip0_10_46)">
<path d="M74.7942 40.1871C77.0602 40.1871 78.9038 38.3435 78.9038 36.0775C78.9038 33.8114 77.0602 31.9678 74.7942 31.9678C72.5282 31.9678 70.6846 33.8114 70.6846 36.0775C70.6846 38.3437 72.5282 40.1871 74.7942 40.1871ZM74.7942 34.6633C75.574 34.6633 76.2085 35.2978 76.2085 36.0776C76.2085 36.8575 75.574 37.492 74.7942 37.492C74.0144 37.492 73.3799 36.8575 73.3799 36.0776C73.3799 35.2976 74.0144 34.6633 74.7942 34.6633ZM51.005 13.7556V16.5573L48.6933 13.0185C48.5346 12.7755 48.3015 12.5902 48.029 12.4903C47.7564 12.3903 47.4588 12.3811 47.1806 12.4639C46.9023 12.5468 46.6582 12.7172 46.4847 12.95C46.3112 13.1827 46.2174 13.4653 46.2174 13.7556V21.0843C46.2174 21.8286 46.8206 22.432 47.5651 22.432C48.3095 22.432 48.9127 21.8286 48.9127 21.0843V18.2826L51.2244 21.8214C51.3833 22.0644 51.6163 22.2496 51.8889 22.3495C52.1614 22.4494 52.4589 22.4587 52.7372 22.3759C53.0154 22.2931 53.2595 22.1226 53.433 21.8899C53.6066 21.6572 53.7003 21.3746 53.7003 21.0843V13.7556C53.7003 13.0113 53.0971 12.4079 52.3527 12.4079C51.6082 12.4079 51.005 13.0113 51.005 13.7556ZM57.8763 15.1033H60.8224C61.5669 15.1033 62.1701 14.4999 62.1701 13.7556C62.1701 13.0113 61.5669 12.4079 60.8224 12.4079H57.8763C56.1178 12.4079 54.6873 13.8384 54.6873 15.597V19.2431C54.6873 21.0015 56.1178 22.4322 57.8763 22.4322H58.9812C60.7396 22.4322 62.1701 21.0017 62.1701 19.2431V17.551C62.1701 17.1935 62.0281 16.8508 61.7754 16.598C61.5226 16.3453 61.1798 16.2033 60.8224 16.2033H59.5335C59.1811 16.2032 58.8426 16.3411 58.5907 16.5875C58.3387 16.8339 58.1933 17.1692 58.1856 17.5216C58.178 17.8739 58.3086 18.2153 58.5496 18.4724C58.7905 18.7296 59.1227 18.8821 59.4748 18.8974V19.2431C59.4747 19.374 59.4226 19.4995 59.3301 19.5921C59.2376 19.6846 59.1121 19.7367 58.9812 19.7369H57.8763C57.7454 19.7367 57.6199 19.6846 57.5273 19.5921C57.4348 19.4995 57.3828 19.374 57.3827 19.2431V15.597C57.3828 15.4661 57.4348 15.3406 57.5273 15.2481C57.6199 15.1555 57.7454 15.1034 57.8763 15.1033Z" fill="url(#paint0_linear_10_46)"/>
<path d="M89.1787 53.8164C89.5361 53.8164 89.8789 53.6744 90.1317 53.4217C90.3844 53.169 90.5264 52.8262 90.5264 52.4688V21.0844H90.5231C90.5238 20.9076 90.4895 20.7324 90.4224 20.5689C90.3552 20.4054 90.2565 20.2568 90.1318 20.1315L70.3951 0.394773C70.1427 0.143645 69.801 0.00278969 69.4449 0.00305469L33.6116 0C32.361 0 31.3432 1.01757 31.3432 2.26837V19.8862H3.74199C2.49119 19.8862 1.47362 20.9038 1.47362 22.1546V89.7318C1.47362 90.9824 2.49119 92.0002 3.74199 92.0002H58.3882C59.639 92.0002 60.6566 90.9826 60.6566 89.7318V86.25C60.6566 85.5057 60.0534 84.9023 59.3089 84.9023C58.5645 84.9023 57.9613 85.5057 57.9613 86.25V89.3047H4.16893V22.5813H38.2247V40.418C38.2247 41.4658 39.0772 42.318 40.1248 42.318H57.9613V79.9609C57.9613 80.7052 58.5645 81.3086 59.3089 81.3086C60.0534 81.3086 60.6566 80.7052 60.6566 79.9609L60.6558 72.114H88.2578C89.5086 72.114 90.5262 71.0964 90.5262 69.8456V58.7578C90.5262 58.0135 89.923 57.4102 89.1785 57.4102C88.4341 57.4102 87.8309 58.0135 87.8309 58.7578V69.4187H60.6558L60.6551 60.083H82.0674C83.1152 60.083 83.9674 59.2306 83.9674 58.183V28.9672C83.9674 27.9195 83.1152 27.0672 82.0674 27.0672H59.2969C58.5524 27.0672 57.9492 27.6706 57.9492 28.4149C57.9492 29.1591 58.5524 29.7625 59.2969 29.7625H81.2721V56.1031L71.3686 42.748C71.1571 42.464 70.8823 42.2333 70.5659 42.0741C70.2496 41.9149 69.9005 41.8316 69.5464 41.8309C68.8314 41.8309 68.1503 42.1737 67.7244 42.748L62.482 49.8175L60.6539 47.3521L60.6533 40.9673C60.6536 40.6114 60.5129 40.2698 60.262 40.0173L50.007 29.7625H53.0078C53.7523 29.7625 54.3555 29.1591 54.3555 28.4149C54.3555 27.6706 53.7523 27.0672 53.0078 27.0672H47.3117L40.5975 20.353V19.0294H42.1962C43.9546 19.0294 45.3851 17.599 45.3851 15.8404V15.5971C45.3851 13.8386 43.9546 12.408 42.1962 12.408H39.2499C38.8924 12.408 38.5497 12.5499 38.2969 12.8027C38.0442 13.0554 37.9022 13.3982 37.9022 13.7556V19.886H34.0387V2.69531H68.0944V20.532C68.0944 21.5798 68.9466 22.432 69.9944 22.432H87.8311V52.4688C87.8311 52.8262 87.9731 53.169 88.2258 53.4217C88.4785 53.6744 88.8213 53.8164 89.1787 53.8164ZM61.3996 52.8827C61.5249 53.0518 61.6881 53.1891 61.8761 53.2837C62.0641 53.3783 62.2716 53.4276 62.482 53.4276C62.6925 53.4276 62.9 53.3783 63.0879 53.2837C63.2759 53.1891 63.4391 53.0518 63.5644 52.8827L69.5462 44.8159L78.869 57.3875H60.6548L60.6542 51.8776L61.3996 52.8827ZM40.5975 15.1033H42.1962C42.3271 15.1034 42.4526 15.1555 42.5451 15.2481C42.6377 15.3406 42.6897 15.4662 42.6898 15.5971V15.8404C42.6897 15.9712 42.6377 16.0968 42.5451 16.1893C42.4526 16.2819 42.3271 16.334 42.1962 16.3341H40.5975V15.1033ZM40.9201 24.4873L56.0555 39.6227H40.9201V24.4873ZM70.7897 19.7367V4.60108L85.9251 19.7365L70.7897 19.7367Z" fill="url(#paint1_linear_10_46)"/>
<path d="M10.0742 37.2672C9.71676 37.2672 9.37398 37.4092 9.12124 37.6619C8.86851 37.9146 8.72652 38.2574 8.72652 38.6148V39.1291C8.72652 40.8875 10.157 42.318 11.9156 42.318H13.0207C14.7791 42.318 16.2096 40.8875 16.2096 39.1291V33.6418C16.2096 33.2844 16.0676 32.9416 15.8149 32.6889C15.5622 32.4361 15.2194 32.2942 14.862 32.2942C14.5045 32.2942 14.1618 32.4361 13.909 32.6889C13.6563 32.9416 13.5143 33.2844 13.5143 33.6418V39.1291C13.5142 39.26 13.4621 39.3854 13.3696 39.478C13.277 39.5705 13.1516 39.6226 13.0207 39.6227H11.9156C11.7847 39.6226 11.6592 39.5706 11.5666 39.478C11.4741 39.3855 11.422 39.26 11.4218 39.1291V38.6148C11.4218 38.2574 11.2799 37.9146 11.0271 37.6619C10.7744 37.4092 10.4316 37.2672 10.0742 37.2672ZM20.0321 40.9704V38.9155H21.6308C23.3892 38.9155 24.8199 37.485 24.8199 35.7266V35.4831C24.8199 33.7247 23.3894 32.2942 21.6308 32.2942H18.6844C18.327 32.2942 17.9842 32.4361 17.7315 32.6889C17.4788 32.9416 17.3368 33.2844 17.3368 33.6418V40.9704C17.3368 41.3278 17.4788 41.6706 17.7315 41.9233C17.9842 42.176 18.327 42.318 18.6844 42.318C19.0419 42.318 19.3846 42.176 19.6374 41.9233C19.8901 41.6706 20.0321 41.3278 20.0321 40.9704ZM20.0321 34.9895H21.6308C21.7617 34.9896 21.8872 35.0416 21.9798 35.1341C22.0723 35.2267 22.1244 35.3522 22.1246 35.4831V35.7266C22.1244 35.8574 22.0723 35.9829 21.9798 36.0755C21.8872 36.168 21.7617 36.2201 21.6308 36.2202H20.0321V34.9895ZM28.8553 34.9895H31.8016C32.1591 34.9895 32.5018 34.8475 32.7546 34.5948C33.0073 34.342 33.1493 33.9992 33.1493 33.6418C33.1493 33.2844 33.0073 32.9416 32.7546 32.6889C32.5018 32.4361 32.1591 32.2942 31.8016 32.2942H28.8553C27.0969 32.2942 25.6662 33.7247 25.6662 35.4831V39.1291C25.6662 40.8875 27.0967 42.318 28.8553 42.318H29.9604C31.7188 42.318 33.1493 40.8875 33.1493 39.1291V37.437C33.1493 37.0796 33.0073 36.7368 32.7546 36.4841C32.5018 36.2313 32.1591 36.0893 31.8016 36.0893H30.5127C30.1603 36.0892 29.8218 36.2271 29.5699 36.4735C29.3179 36.72 29.1725 37.0553 29.1648 37.4076C29.1572 37.76 29.2878 38.1013 29.5288 38.3585C29.7698 38.6156 30.1019 38.7682 30.454 38.7834V39.1291C30.4538 39.26 30.4018 39.3854 30.3092 39.478C30.2167 39.5705 30.0912 39.6226 29.9604 39.6227H28.8553C28.7244 39.6226 28.5989 39.5706 28.5063 39.478C28.4137 39.3855 28.3617 39.26 28.3615 39.1291V35.4831C28.3618 35.3522 28.4139 35.2268 28.5064 35.1342C28.599 35.0417 28.7244 34.9897 28.8553 34.9895ZM54.0978 78.069V48.8534C54.0978 47.8057 53.2455 46.9534 52.1978 46.9534H9.93259C8.88483 46.9534 8.03257 47.8059 8.03257 48.8534V78.069C8.03257 79.1168 8.88501 79.969 9.93259 79.969H52.1978C53.2455 79.969 54.0978 79.1166 54.0978 78.069ZM51.4025 49.6487V75.9895L41.4988 62.634C41.0665 62.0513 40.4024 61.7169 39.6768 61.7169C38.9512 61.7169 38.2871 62.0511 37.8548 62.634L32.6124 69.7035L24.6612 58.9813C24.4497 58.6973 24.1749 58.4665 23.8586 58.3073C23.5424 58.148 23.1933 58.0648 22.8392 58.064H22.839C22.124 58.064 21.4428 58.4069 21.017 58.9812L10.7275 72.8566V49.6487H51.4025ZM10.808 77.2737L22.8394 61.0494L31.5301 72.7689C31.6555 72.938 31.8187 73.0753 32.0066 73.1699C32.1946 73.2645 32.4021 73.3138 32.6126 73.3138C32.823 73.3138 33.0305 73.2645 33.2185 73.1699C33.4064 73.0753 33.5696 72.938 33.695 72.7689L39.677 64.7021L48.9995 77.2737H10.808Z" fill="url(#paint2_linear_10_46)"/>
<path d="M44.9246 60.0733C47.1906 60.0733 49.0342 58.2297 49.0342 55.9637C49.0342 53.6976 47.1906 51.854 44.9246 51.854C42.6585 51.854 40.8149 53.6976 40.8149 55.9637C40.8151 58.2297 42.6585 60.0733 44.9246 60.0733ZM44.9246 54.5493C45.7044 54.5493 46.3389 55.1838 46.3389 55.9637C46.3389 56.7435 45.7044 57.378 44.9246 57.378C44.1447 57.378 43.5103 56.7435 43.5103 55.9637C43.5104 55.1838 44.1447 54.5493 44.9246 54.5493ZM9.38023 82.6748C9.02281 82.6748 8.68002 82.8167 8.42729 83.0695C8.17456 83.3222 8.03257 83.665 8.03257 84.0224C8.03257 84.3798 8.17456 84.7226 8.42729 84.9753C8.68002 85.2281 9.02281 85.3701 9.38023 85.3701H17.2554C17.6128 85.3701 17.9556 85.2281 18.2083 84.9753C18.4611 84.7226 18.603 84.3798 18.603 84.0224C18.603 83.665 18.4611 83.3222 18.2083 83.0695C17.9556 82.8167 17.6128 82.6748 17.2554 82.6748H9.38023Z" fill="url(#paint3_linear_10_46)"/>
</g>
<defs>
<linearGradient id="paint0_linear_10_46" x1="62.5606" y1="12.4079" x2="62.5606" y2="40.1871" gradientUnits="userSpaceOnUse">
<stop stop-color="#9768FC"/>
<stop offset="1" stop-color="#347EED"/>
</linearGradient>
<linearGradient id="paint1_linear_10_46" x1="46" y1="0" x2="46" y2="92.0002" gradientUnits="userSpaceOnUse">
<stop stop-color="#9768FC"/>
<stop offset="1" stop-color="#347EED"/>
</linearGradient>
<linearGradient id="paint2_linear_10_46" x1="31.0652" y1="32.2942" x2="31.0652" y2="79.969" gradientUnits="userSpaceOnUse">
<stop stop-color="#9768FC"/>
<stop offset="1" stop-color="#347EED"/>
</linearGradient>
<linearGradient id="paint3_linear_10_46" x1="28.5334" y1="51.854" x2="28.5334" y2="85.3701" gradientUnits="userSpaceOnUse">
<stop stop-color="#9768FC"/>
<stop offset="1" stop-color="#347EED"/>
</linearGradient>
<clipPath id="clip0_10_46">
<rect width="92" height="92" fill="white"/>
</clipPath>
</defs>
</svg>
